<svg xmlns="http://www.w3.org/2000/svg" width="21" height="24" viewBox="0 0 21 24"><defs><style>.a{fill:#111;}</style></defs><path class="a" d="M6.021,12A5.991,5.991,0,0,1,.808,3l.009-.017A6.023,6.023,0,0,1,12.042,6,6.017,6.017,0,0,1,6.021,12Zm0-10.683A4.744,4.744,0,0,0,1.959,3.648l-.007.013A4.7,4.7,0,1,0,6.021,1.317Z" transform="translate(4.406)"/><path class="a" d="M20.25,11.268a.751.751,0,0,1-.75-.751,9,9,0,1,0-18,0,.75.75,0,1,1-1.5,0,10.5,10.5,0,1,1,21,0A.751.751,0,0,1,20.25,11.268Z" transform="translate(0 12.732)"/></svg>