<svg xmlns="http://www.w3.org/2000/svg" width="22.501" height="22.498" viewBox="0 0 22.501 22.498"><defs><style>.a{fill:#111;}</style></defs><path class="a" d="M18,19.875a.75.75,0,0,0,0-1.5H8.078a.75.75,0,0,1-.74-.625l-.4-2.375H18.117a3.745,3.745,0,0,0,3.638-2.84l1.45-5.8A1.5,1.5,0,0,0,21.75,4.87H5.148L4.7,2.249A2.245,2.245,0,0,0,2.484.377H1.5a.75.75,0,0,0,0,1.5h.984a.75.75,0,0,1,.74.624L5.86,18a2.244,2.244,0,0,0,2.218,1.873H18Zm2.3-7.7a2.246,2.246,0,0,1-2.182,1.7H6.68L5.4,6.371H21.749Z" transform="translate(-0.749 -0.377)"/><ellipse class="a" cx="1.125" cy="1.125" rx="1.125" ry="1.125" transform="translate(14.25 20.248)"/><ellipse class="a" cx="1.125" cy="1.125" rx="1.125" ry="1.125" transform="translate(6.75 20.248)"/><path class="a" d="M6,11.625a.75.75,0,0,0,.75-.75V8.625a.75.75,0,1,0-1.5,0v2.25A.752.752,0,0,0,6,11.625Z" transform="translate(11.25 -0.377)"/><path class="a" d="M10.5,11.625a.75.75,0,0,0,.75-.75V8.625a.75.75,0,1,0-1.5,0v2.25A.752.752,0,0,0,10.5,11.625Z" transform="translate(2.25 -0.377)"/><path class="a" d="M15,11.625a.75.75,0,0,0,.75-.75V8.625a.75.75,0,1,0-1.5,0v2.25A.752.752,0,0,0,15,11.625Z" transform="translate(-6.75 -0.377)"/></svg>